<svg xmlns="http://www.w3.org/2000/svg" viewBox="0 0 720 1000" width="720" height="1000" role="img" aria-label="Highlands Adventure route map">
  <defs>
    <linearGradient id="sky" x1="0" y1="0" x2="0" y2="1">
      <stop offset="0" stop-color="#0d232b"/><stop offset="1" stop-color="#14343f"/>
    </linearGradient>
    <pattern id="grid" width="40" height="40" patternUnits="userSpaceOnUse">
      <path d="M40 0H0V40" fill="none" stroke="rgba(230,201,135,0.08)" stroke-width="1"/>
    </pattern>
  </defs>
  <rect width="720" height="1000" fill="url(#sky)"/>
  <rect width="720" height="1000" fill="url(#grid)"/>
  <rect x="16" y="16" width="688" height="968" fill="none" stroke="rgba(230,201,135,0.35)" stroke-width="1.5" rx="10"/>

  <text x="360" y="58" text-anchor="middle" font-family="Georgia, serif" font-size="30" fill="#f4efe4">Highlands Adventure</text>
  <text x="360" y="84" text-anchor="middle" font-family="Helvetica, Arial, sans-serif" font-size="12" letter-spacing="3" fill="#e6c987">8–23 AUGUST 2026 · 16 DAYS · CLOCKWISE LOOP</text>

  <path d="M526.2,930.0 L219.5,595.0 L275.6,459.2 L193.8,258.1 L264.9,225.1 L314.7,80.1 L480.1,70.0 L400.2,229.0 L426.8,379.9" fill="none" stroke="#c8912f" stroke-width="3" stroke-linejoin="round" stroke-linecap="round" stroke-dasharray="2 9" opacity="0.85"/>
  
    <g>
      <circle cx="526.2" cy="930.0" r="13" fill="#14343f" stroke="#e6c987" stroke-width="2"/>
      <text x="526.2" y="934.0" text-anchor="middle" font-family="Georgia, serif" font-size="13" fill="#fff" font-weight="bold">1</text>
    </g>
    <g>
      <circle cx="219.5" cy="595.0" r="13" fill="#14343f" stroke="#e6c987" stroke-width="2"/>
      <text x="219.5" y="599.0" text-anchor="middle" font-family="Georgia, serif" font-size="13" fill="#fff" font-weight="bold">2</text>
    </g>
    <g>
      <circle cx="275.6" cy="459.2" r="13" fill="#14343f" stroke="#e6c987" stroke-width="2"/>
      <text x="275.6" y="463.2" text-anchor="middle" font-family="Georgia, serif" font-size="13" fill="#fff" font-weight="bold">3</text>
    </g>
    <g>
      <circle cx="193.8" cy="258.1" r="13" fill="#14343f" stroke="#e6c987" stroke-width="2"/>
      <text x="193.8" y="262.1" text-anchor="middle" font-family="Georgia, serif" font-size="13" fill="#fff" font-weight="bold">4</text>
    </g>
    <g>
      <circle cx="264.9" cy="225.1" r="13" fill="#14343f" stroke="#e6c987" stroke-width="2"/>
      <text x="264.9" y="229.1" text-anchor="middle" font-family="Georgia, serif" font-size="13" fill="#fff" font-weight="bold">5</text>
    </g>
    <g>
      <circle cx="314.7" cy="80.1" r="13" fill="#14343f" stroke="#e6c987" stroke-width="2"/>
      <text x="314.7" y="84.1" text-anchor="middle" font-family="Georgia, serif" font-size="13" fill="#fff" font-weight="bold">6</text>
    </g>
    <g>
      <circle cx="480.1" cy="70.0" r="13" fill="#14343f" stroke="#e6c987" stroke-width="2"/>
      <text x="480.1" y="74.0" text-anchor="middle" font-family="Georgia, serif" font-size="13" fill="#fff" font-weight="bold">7</text>
    </g>
    <g>
      <circle cx="400.2" cy="229.0" r="13" fill="#14343f" stroke="#e6c987" stroke-width="2"/>
      <text x="400.2" y="233.0" text-anchor="middle" font-family="Georgia, serif" font-size="13" fill="#fff" font-weight="bold">8</text>
    </g>
    <g>
      <circle cx="426.8" cy="379.9" r="13" fill="#14343f" stroke="#e6c987" stroke-width="2"/>
      <text x="426.8" y="383.9" text-anchor="middle" font-family="Georgia, serif" font-size="13" fill="#fff" font-weight="bold">9</text>
    </g>

  <g transform="translate(628, 908)">
    <circle r="30" fill="rgba(13,35,43,0.6)" stroke="#e6c987" stroke-width="1.5"/>
    <path d="M0,-24 L6,0 L0,24 L-6,0 Z" fill="#e6c987"/>
    <text x="0" y="-34" text-anchor="middle" font-family="Helvetica, Arial, sans-serif" font-size="11" fill="#e6c987" font-weight="bold">N</text>
  </g>

  <text x="360" y="966" text-anchor="middle" font-family="Helvetica, Arial, sans-serif" font-size="11" letter-spacing="2" fill="rgba(244,239,228,0.7)">OFFLINE ROUTE MAP · NUMBERS ARE DAYS</text>
</svg>
