<svg xmlns="http://www.w3.org/2000/svg" viewBox="0 0 720 1000" width="720" height="1000" role="img" aria-label="Highlands Adventure route map">
  <defs>
    <linearGradient id="sky" x1="0" y1="0" x2="0" y2="1">
      <stop offset="0" stop-color="#0d232b"/><stop offset="1" stop-color="#14343f"/>
    </linearGradient>
    <pattern id="grid" width="40" height="40" patternUnits="userSpaceOnUse">
      <path d="M40 0H0V40" fill="none" stroke="rgba(230,201,135,0.08)" stroke-width="1"/>
    </pattern>
  </defs>
  <rect width="720" height="1000" fill="url(#sky)"/>
  <rect width="720" height="1000" fill="url(#grid)"/>
  <rect x="16" y="16" width="688" height="968" fill="none" stroke="rgba(230,201,135,0.35)" stroke-width="1.5" rx="10"/>

  <text x="360" y="58" text-anchor="middle" font-family="Georgia, serif" font-size="30" fill="#f4efe4">Highlands Adventure</text>
  <text x="360" y="84" text-anchor="middle" font-family="Helvetica, Arial, sans-serif" font-size="12" letter-spacing="3" fill="#e6c987">8–23 AUGUST 2026 · 16 DAYS · CLOCKWISE LOOP</text>

  <path d="M464.0,902.5 L195.6,586.7 L201.5,586.1 L256.4,476.7 L207.6,435.8 L199.1,298.6 L256.0,255.9 L256.4,172.1 L287.5,92.2 L438.1,70.0 L476.6,75.5 L374.2,210.1 L318.6,343.9 L390.6,377.3 L397.9,470.4 L524.4,930.0" fill="none" stroke="#c8912f" stroke-width="3" stroke-linejoin="round" stroke-linecap="round" stroke-dasharray="2 9" opacity="0.85"/>
  
    <g>
      <circle cx="464.0" cy="902.5" r="13" fill="#14343f" stroke="#e6c987" stroke-width="2"/>
      <text x="464.0" y="906.5" text-anchor="middle" font-family="Georgia, serif" font-size="13" fill="#fff" font-weight="bold">1</text>
    </g>
    <g>
      <circle cx="195.6" cy="586.7" r="13" fill="#14343f" stroke="#e6c987" stroke-width="2"/>
      <text x="195.6" y="590.7" text-anchor="middle" font-family="Georgia, serif" font-size="13" fill="#fff" font-weight="bold">2</text>
    </g>
    <g>
      <circle cx="201.5" cy="586.1" r="13" fill="#14343f" stroke="#e6c987" stroke-width="2"/>
      <text x="201.5" y="590.1" text-anchor="middle" font-family="Georgia, serif" font-size="13" fill="#fff" font-weight="bold">3</text>
    </g>
    <g>
      <circle cx="256.4" cy="476.7" r="13" fill="#14343f" stroke="#e6c987" stroke-width="2"/>
      <text x="256.4" y="480.7" text-anchor="middle" font-family="Georgia, serif" font-size="13" fill="#fff" font-weight="bold">4</text>
    </g>
    <g>
      <circle cx="207.6" cy="435.8" r="13" fill="#14343f" stroke="#e6c987" stroke-width="2"/>
      <text x="207.6" y="439.8" text-anchor="middle" font-family="Georgia, serif" font-size="13" fill="#fff" font-weight="bold">5</text>
    </g>
    <g>
      <circle cx="199.1" cy="298.6" r="13" fill="#14343f" stroke="#e6c987" stroke-width="2"/>
      <text x="199.1" y="302.6" text-anchor="middle" font-family="Georgia, serif" font-size="13" fill="#fff" font-weight="bold">6</text>
    </g>
    <g>
      <circle cx="256.0" cy="255.9" r="13" fill="#14343f" stroke="#e6c987" stroke-width="2"/>
      <text x="256.0" y="259.9" text-anchor="middle" font-family="Georgia, serif" font-size="13" fill="#fff" font-weight="bold">7</text>
    </g>
    <g>
      <circle cx="256.4" cy="172.1" r="13" fill="#14343f" stroke="#e6c987" stroke-width="2"/>
      <text x="256.4" y="176.1" text-anchor="middle" font-family="Georgia, serif" font-size="13" fill="#fff" font-weight="bold">8</text>
    </g>
    <g>
      <circle cx="287.5" cy="92.2" r="13" fill="#14343f" stroke="#e6c987" stroke-width="2"/>
      <text x="287.5" y="96.2" text-anchor="middle" font-family="Georgia, serif" font-size="13" fill="#fff" font-weight="bold">9</text>
    </g>
    <g>
      <circle cx="438.1" cy="70.0" r="13" fill="#14343f" stroke="#e6c987" stroke-width="2"/>
      <text x="438.1" y="74.0" text-anchor="middle" font-family="Georgia, serif" font-size="13" fill="#fff" font-weight="bold">10</text>
    </g>
    <g>
      <circle cx="476.6" cy="75.5" r="13" fill="#14343f" stroke="#e6c987" stroke-width="2"/>
      <text x="476.6" y="79.5" text-anchor="middle" font-family="Georgia, serif" font-size="13" fill="#fff" font-weight="bold">11</text>
    </g>
    <g>
      <circle cx="374.2" cy="210.1" r="13" fill="#14343f" stroke="#e6c987" stroke-width="2"/>
      <text x="374.2" y="214.1" text-anchor="middle" font-family="Georgia, serif" font-size="13" fill="#fff" font-weight="bold">12</text>
    </g>
    <g>
      <circle cx="318.6" cy="343.9" r="13" fill="#14343f" stroke="#e6c987" stroke-width="2"/>
      <text x="318.6" y="347.9" text-anchor="middle" font-family="Georgia, serif" font-size="13" fill="#fff" font-weight="bold">13</text>
    </g>
    <g>
      <circle cx="390.6" cy="377.3" r="13" fill="#14343f" stroke="#e6c987" stroke-width="2"/>
      <text x="390.6" y="381.3" text-anchor="middle" font-family="Georgia, serif" font-size="13" fill="#fff" font-weight="bold">14</text>
    </g>
    <g>
      <circle cx="397.9" cy="470.4" r="13" fill="#14343f" stroke="#e6c987" stroke-width="2"/>
      <text x="397.9" y="474.4" text-anchor="middle" font-family="Georgia, serif" font-size="13" fill="#fff" font-weight="bold">15</text>
    </g>
    <g>
      <circle cx="524.4" cy="930.0" r="13" fill="#14343f" stroke="#e6c987" stroke-width="2"/>
      <text x="524.4" y="934.0" text-anchor="middle" font-family="Georgia, serif" font-size="13" fill="#fff" font-weight="bold">16</text>
    </g>

  <g transform="translate(628, 908)">
    <circle r="30" fill="rgba(13,35,43,0.6)" stroke="#e6c987" stroke-width="1.5"/>
    <path d="M0,-24 L6,0 L0,24 L-6,0 Z" fill="#e6c987"/>
    <text x="0" y="-34" text-anchor="middle" font-family="Helvetica, Arial, sans-serif" font-size="11" fill="#e6c987" font-weight="bold">N</text>
  </g>

  <text x="360" y="966" text-anchor="middle" font-family="Helvetica, Arial, sans-serif" font-size="11" letter-spacing="2" fill="rgba(244,239,228,0.7)">OFFLINE ROUTE MAP · NUMBERS ARE DAYS</text>
</svg>
