<svg xmlns="http://www.w3.org/2000/svg" viewBox="0 0 720 1000" width="720" height="1000" role="img" aria-label="Highlands Adventure route map">
  <defs>
    <linearGradient id="sky" x1="0" y1="0" x2="0" y2="1">
      <stop offset="0" stop-color="#0d232b"/><stop offset="1" stop-color="#14343f"/>
    </linearGradient>
    <pattern id="grid" width="40" height="40" patternUnits="userSpaceOnUse">
      <path d="M40 0H0V40" fill="none" stroke="rgba(230,201,135,0.08)" stroke-width="1"/>
    </pattern>
  </defs>
  <rect width="720" height="1000" fill="url(#sky)"/>
  <rect width="720" height="1000" fill="url(#grid)"/>
  <rect x="16" y="16" width="688" height="968" fill="none" stroke="rgba(230,201,135,0.35)" stroke-width="1.5" rx="10"/>

  <text x="360" y="58" text-anchor="middle" font-family="Georgia, serif" font-size="30" fill="#f4efe4">Highlands Adventure</text>
  <text x="360" y="84" text-anchor="middle" font-family="Helvetica, Arial, sans-serif" font-size="12" letter-spacing="3" fill="#e6c987">8–23 AUGUST 2026 · 16 DAYS · CLOCKWISE LOOP</text>

  <path d="M516.0,930.0 L229.5,592.0 L285.3,457.0 L204.0,257.1 L274.6,224.2 L324.2,80.0 L488.7,70.0 L409.2,228.1 L435.7,378.1" fill="none" stroke="#c8912f" stroke-width="3" stroke-linejoin="round" stroke-linecap="round" stroke-dasharray="2 9" opacity="0.85"/>
  
    <g>
      <circle cx="516.0" cy="930.0" r="13" fill="#14343f" stroke="#e6c987" stroke-width="2"/>
      <text x="516.0" y="934.0" text-anchor="middle" font-family="Georgia, serif" font-size="13" fill="#fff" font-weight="bold">1</text>
    </g>
    <g>
      <circle cx="229.5" cy="592.0" r="13" fill="#14343f" stroke="#e6c987" stroke-width="2"/>
      <text x="229.5" y="596.0" text-anchor="middle" font-family="Georgia, serif" font-size="13" fill="#fff" font-weight="bold">2</text>
    </g>
    <g>
      <circle cx="285.3" cy="457.0" r="13" fill="#14343f" stroke="#e6c987" stroke-width="2"/>
      <text x="285.3" y="461.0" text-anchor="middle" font-family="Georgia, serif" font-size="13" fill="#fff" font-weight="bold">3</text>
    </g>
    <g>
      <circle cx="204.0" cy="257.1" r="13" fill="#14343f" stroke="#e6c987" stroke-width="2"/>
      <text x="204.0" y="261.1" text-anchor="middle" font-family="Georgia, serif" font-size="13" fill="#fff" font-weight="bold">4</text>
    </g>
    <g>
      <circle cx="274.6" cy="224.2" r="13" fill="#14343f" stroke="#e6c987" stroke-width="2"/>
      <text x="274.6" y="228.2" text-anchor="middle" font-family="Georgia, serif" font-size="13" fill="#fff" font-weight="bold">5</text>
    </g>
    <g>
      <circle cx="324.2" cy="80.0" r="13" fill="#14343f" stroke="#e6c987" stroke-width="2"/>
      <text x="324.2" y="84.0" text-anchor="middle" font-family="Georgia, serif" font-size="13" fill="#fff" font-weight="bold">6</text>
    </g>
    <g>
      <circle cx="488.7" cy="70.0" r="13" fill="#14343f" stroke="#e6c987" stroke-width="2"/>
      <text x="488.7" y="74.0" text-anchor="middle" font-family="Georgia, serif" font-size="13" fill="#fff" font-weight="bold">7</text>
    </g>
    <g>
      <circle cx="409.2" cy="228.1" r="13" fill="#14343f" stroke="#e6c987" stroke-width="2"/>
      <text x="409.2" y="232.1" text-anchor="middle" font-family="Georgia, serif" font-size="13" fill="#fff" font-weight="bold">8</text>
    </g>
    <g>
      <circle cx="435.7" cy="378.1" r="13" fill="#14343f" stroke="#e6c987" stroke-width="2"/>
      <text x="435.7" y="382.1" text-anchor="middle" font-family="Georgia, serif" font-size="13" fill="#fff" font-weight="bold">9</text>
    </g>

  <g transform="translate(628, 908)">
    <circle r="30" fill="rgba(13,35,43,0.6)" stroke="#e6c987" stroke-width="1.5"/>
    <path d="M0,-24 L6,0 L0,24 L-6,0 Z" fill="#e6c987"/>
    <text x="0" y="-34" text-anchor="middle" font-family="Helvetica, Arial, sans-serif" font-size="11" fill="#e6c987" font-weight="bold">N</text>
  </g>

  <text x="360" y="966" text-anchor="middle" font-family="Helvetica, Arial, sans-serif" font-size="11" letter-spacing="2" fill="rgba(244,239,228,0.7)">OFFLINE ROUTE MAP · NUMBERS ARE DAYS</text>
</svg>
